HIERARCHY
ROOT Hips
{
	OFFSET 0.00 0.00 0.00
	CHANNELS 6 Xposition Yposition Zposition Xrotation Yrotation Zrotation
	JOINT Spine
	{
		OFFSET 0.00000 0.84964 1.27446
		CHANNELS 3 Xrotation Yrotation Zrotation
		JOINT Spine1
		{
			OFFSET 0.00000 0.29508 1.67346
			CHANNELS 3 Xrotation Yrotation Zrotation
			JOINT Spine2
			{
				OFFSET 0.00000 0.14810 1.69281
				CHANNELS 3 Xrotation Yrotation Zrotation
				JOINT Spine3
				{
					OFFSET 0.00000 0.00000 1.69928
					CHANNELS 3 Xrotation Yrotation Zrotation
					JOINT Neck
					{
						OFFSET 0.00000 -0.63723 4.46061
						CHANNELS 3 Xrotation Yrotation Zrotation
						JOINT Head
						{
							OFFSET 0.00000 -0.40573 2.30101
							CHANNELS 3 Xrotation Yrotation Zrotation
							End Site
							{
								OFFSET 0.00000 0.00000 2.75071
							}
						}
					}
					JOINT RightShoulder
					{
						OFFSET -0.72014 -1.20022 3.88874
						CHANNELS 3 Xrotation Yrotation Zrotation
						JOINT RightArm
						{
							OFFSET -3.57668 0.00000 0.00000
							CHANNELS 3 Xrotation Yrotation Zrotation
							JOINT RightForeArm
							{
								OFFSET -5.92485 0.00000 0.00000
								CHANNELS 3 Xrotation Yrotation Zrotation
								JOINT RightHand
								{
									OFFSET -6.63013 0.00000 0.00000
									CHANNELS 3 Xrotation Yrotation Zrotation
									JOINT RightHandEnd
									{
										OFFSET -1.65321 0.00000 0.00000
										CHANNELS 3 Xrotation Yrotation Zrotation
										End Site
										{
											OFFSET -1.65321 0.00000 0.00000
										}
									}
									JOINT RightHandThumb1
									{
										OFFSET -0.66129 -1.10214 -0.44086
										CHANNELS 3 Yrotation Xrotation Zrotation
										End Site
										{
											OFFSET -1.59688 -0.42788 0.00000
										}
									}
								}
							}
						}
					}
					JOINT LeftShoulder
					{
						OFFSET 0.72014 -1.20022 3.88874
						CHANNELS 3 Xrotation Yrotation Zrotation
						JOINT LeftArm
						{
							OFFSET 3.57668 0.00000 0.00000
							CHANNELS 3 Xrotation Yrotation Zrotation
							JOINT LeftForeArm
							{
								OFFSET 5.92485 0.00000 0.00000
								CHANNELS 3 Xrotation Yrotation Zrotation
								JOINT LeftHand
								{
									OFFSET 6.63013 0.00000 0.00000
									CHANNELS 3 Xrotation Yrotation Zrotation
									JOINT LeftHandEnd
									{
										OFFSET 1.65321 0.00000 0.00000
										CHANNELS 3 Xrotation Yrotation Zrotation
										End Site
										{
											OFFSET 1.65321 0.00000 0.00000
										}
									}
									JOINT LeftHandThumb1
									{
										OFFSET 0.66129 -1.10214 -0.44086
										CHANNELS 3 Yrotation Xrotation Zrotation
										End Site
										{
											OFFSET 1.59688 -0.42788 0.00000
										}
									}
								}
							}
						}
					}
				}
			}
		}
	}
	JOINT RightUpLeg
	{
		OFFSET -2.13640 0.00000 -0.62412
		CHANNELS 3 Xrotation Yrotation Zrotation
		JOINT RightLeg
		{
			OFFSET 0.00000 0.00000 -11.49360
			CHANNELS 3 Xrotation Yrotation Zrotation
			JOINT RightFoot
			{
				OFFSET 0.00000 0.00000 -8.79036
				CHANNELS 3 Xrotation Yrotation Zrotation
				JOINT RightToeBase
				{
					OFFSET 0.00000 -3.94625 -1.43632
					CHANNELS 3 Xrotation Yrotation Zrotation
					End Site
					{
						OFFSET 0.00000 -1.72833 -0.00000
					}
				}
			}
		}
	}
	JOINT LeftUpLeg
	{
		OFFSET 2.13640 0.00000 -0.62412
		CHANNELS 3 Xrotation Yrotation Zrotation
		JOINT LeftLeg
		{
			OFFSET 0.00000 0.00000 -11.49360
			CHANNELS 3 Xrotation Yrotation Zrotation
			JOINT LeftFoot
			{
				OFFSET 0.00000 0.00000 -8.79036
				CHANNELS 3 Xrotation Yrotation Zrotation
				JOINT LeftToeBase
				{
					OFFSET 0.00000 -3.94625 -1.43632
					CHANNELS 3 Xrotation Yrotation Zrotation
					End Site
					{
						OFFSET 0.00000 -1.72833 -0.00000
					}
				}
			}
		}
	}
}
MOTION
Frames: 6
Frame Time: 0.00025
 0.7938 -2.1487 23.6036 1.1633 -1.7373 175.8264 -6.8397 -2.3877 0.4904 -2.0141 -1.6590 -0.0419 10.6414 3.0686 4.9558 1.3046 3.9227 -0.5552 -9.9858 4.8584 1.0701 9.7386 -4.8595 -2.0721 4.4679 -21.5320 4.1762 -4.4985 -55.1417 -2.6347 0.0000 0.0000 16.0263 -11.1784 -6.9788 4.1051 -0.0000 0.0000 0.0000 0.0000 0.0000 0.0000 -1.2822 27.0660 -3.8810 24.2499 46.4341 -16.0513 -0.0000 -0.0000 -19.0467 -2.8812 -15.1147 12.2964 0.0000 0.0000 0.0000 0.0000 0.0000 0.0000 2.2731 1.3677 -46.3152 -2.4963 0.0000 -0.0000 18.5929 -11.6413 40.8633 -39.0261 0.0000 -0.0000 4.7060 -5.1797 19.3113 -5.9194 0.0000 -0.0000 -0.9810 -5.1701 -19.4604 -4.9404 0.0000 -0.0000
 0.7961 -2.1358 23.6030 1.1829 -1.7250 175.7381 -6.8807 -2.3685 0.5146 -2.0356 -1.6728 -0.0450 10.6892 3.0936 4.9315 1.2970 3.8974 -0.5499 -10.0244 4.8188 1.0662 9.7206 -4.8367 -2.0437 4.4509 -21.5967 4.1354 -4.5284 -55.0916 -2.6532 0.0000 0.0000 16.0448 -11.2279 -6.9692 4.1309 0.0000 -0.0000 -0.0000 0.0000 -0.0000 0.0000 -1.2764 27.0436 -3.8438 24.2705 46.4905 -16.0077 -0.0000 -0.0000 -19.1123 -2.8084 -15.1174 12.2890 -0.0000 0.0000 -0.0000 0.0000 -0.0000 0.0000 2.3040 1.3571 -46.2912 -2.5425 0.0000 -0.0000 18.5872 -11.5321 40.8413 -39.3738 0.0000 -0.0000 4.7779 -5.1645 19.3622 -5.9147 0.0000 -0.0000 -1.0178 -5.1424 -19.4183 -4.9326 0.0000 -0.0000
 0.7983 -2.1191 23.6024 1.1661 -1.7147 175.6367 -6.9794 -2.3526 0.5324 -2.0673 -1.6781 -0.0505 10.7625 3.1035 4.8961 1.2886 3.8765 -0.5479 -10.0859 4.7587 1.0614 9.6875 -4.8061 -2.0036 4.4173 -21.6890 4.0865 -4.5575 -55.0182 -2.6651 0.0000 0.0000 16.0562 -11.2741 -6.9798 4.1598 -0.0000 0.0000 -0.0000 0.0000 -0.0000 -0.0000 -1.2675 27.0223 -3.7880 24.2809 46.5635 -15.9360 -0.0000 -0.0000 -19.2029 -2.7379 -15.1128 12.2821 -0.0000 -0.0000 0.0000 0.0000 0.0000 -0.0000 2.3145 1.3444 -46.2683 -2.5919 0.0000 -0.0000 18.5837 -11.4464 40.8563 -39.6144 0.0000 -0.0000 4.8240 -5.1527 19.4147 -5.9045 0.0000 -0.0000 -1.0693 -5.1175 -19.3643 -4.9241 0.0000 -0.0000
 0.8000 -2.0984 23.6020 1.1919 -1.7342 175.5414 -7.0389 -2.3618 0.5364 -2.0971 -1.6890 -0.0550 10.8301 3.1269 4.8384 1.2811 3.8405 -0.5416 -10.1602 4.6828 1.0547 9.6361 -4.7641 -1.9556 4.3890 -21.7824 4.0460 -4.5783 -54.9405 -2.6549 0.0000 0.0000 16.0545 -11.3062 -7.0128 4.1874 0.0000 0.0000 -0.0000 -0.0000 0.0000 0.0000 -1.2518 26.9974 -3.7292 24.2447 46.6758 -15.8123 -0.0000 -0.0000 -19.3089 -2.6769 -15.0956 12.2792 0.0000 -0.0000 0.0000 -0.0000 -0.0000 0.0000 2.4125 1.3139 -46.2562 -2.6478 0.0000 -0.0000 18.6015 -11.4691 40.9741 -39.4323 0.0000 -0.0000 4.9353 -5.1626 19.4688 -5.9155 0.0000 -0.0000 -1.1238 -5.1024 -19.3122 -4.9233 0.0000 -0.0000
 0.7995 -2.0766 23.6022 1.1902 -1.7699 175.4760 -7.1352 -2.3933 0.5143 -2.1246 -1.6957 -0.0629 10.9130 3.1370 4.7773 1.2757 3.8157 -0.5424 -10.2514 4.5979 1.0475 9.5647 -4.7194 -1.9100 4.3601 -21.8883 4.0169 -4.5422 -54.8410 -2.5827 0.0000 0.0000 16.0379 -11.3226 -7.0646 4.2041 0.0000 -0.0000 -0.0000 -0.0000 -0.0000 -0.0000 -1.2315 26.9877 -3.6769 24.1237 46.8067 -15.6195 -0.0000 -0.0000 -19.4136 -2.6479 -15.0508 12.2756 -0.0000 0.0000 -0.0000 -0.0000 0.0000 0.0000 2.5262 1.2930 -46.2689 -2.6789 0.0000 -0.0000 18.6415 -11.6659 41.2371 -38.6147 0.0000 -0.0000 5.0144 -5.1871 19.4926 -5.9235 0.0000 -0.0000 -1.1810 -5.1147 -19.2590 -4.9351 0.0000 -0.0000
 0.7966 -2.0542 23.6030 1.2170 -1.8346 175.4459 -7.1930 -2.4636 0.4654 -2.1487 -1.6939 -0.0715 10.9885 3.1380 4.7206 1.2765 3.7939 -0.5436 -10.3508 4.5189 1.0395 9.4754 -4.6724 -1.8755 4.3243 -21.9794 3.9945 -4.4322 -54.7440 -2.4523 0.0000 0.0000 16.0167 -11.3221 -7.1139 4.2078 -0.0000 -0.0000 -0.0000 -0.0000 -0.0000 0.0000 -1.2133 26.9911 -3.6331 23.9093 46.9624 -15.3676 -0.0000 -0.0000 -19.4953 -2.6601 -14.9757 12.2751 -0.0000 0.0000 -0.0000 -0.0000 0.0000 0.0000 2.7183 1.2710 -46.2939 -2.6957 0.0000 -0.0000 18.7155 -12.0514 41.6397 -37.1701 0.0000 -0.0000 5.1254 -5.2321 19.4952 -5.9464 0.0000 -0.0000 -1.2340 -5.1519 -19.2159 -4.9593 0.0000 -0.0000
